<svg width="32" height="32" fill="none" xmlns="http://www.w3.org/2000/svg"><g clip-path="url(#clip0_1_2)"><path fill-rule="evenodd" clip-rule="evenodd" d="M11.593 19.265a6.638 6.638 0 01-3.11-5.644C8.483 9.965 11.401 7 15 7c2.742 0 5.089 1.72 6.051 4.157a12.016 12.016 0 00-9.458 8.108zm1.575 10.617A14.12 14.12 0 015 25.855c1.418-1.373 3.521-2.436 6-2.995V23c0 2.56.802 4.934 2.168 6.882z" fill="#009131"/><path fill-rule="evenodd" clip-rule="evenodd" d="M23.787 11.025c1.698.11 3.3.574 4.733 1.317a15.04 15.04 0 00-.385-1.237A3 3 0 0026 6c-.31 0-.602.061-.883.147a14.46 14.46 0 00-7.889-4.382A2.997 2.997 0 0014.5 0a2.997 2.997 0 00-2.728 1.765 14.46 14.46 0 00-7.889 4.382A2.998 2.998 0 003 6a3 3 0 00-2.135 5.105A14.442 14.442 0 000 16c0 1.863.364 3.639 1.004 5.275A2.984 2.984 0 000 23.5a3 3 0 003 3c.438 0 .852-.1 1.228-.269a14.458 14.458 0 007.544 4.004 2.997 2.997 0 003.241 1.721 12.027 12.027 0 01-3.122-4.41 3.028 3.028 0 00-.256.61 12.497 12.497 0 01-5.964-3.316c.204-.405.329-.856.329-1.34a3 3 0 00-3-3 .557.557 0 00-.082.008c-.02.003-.04.006-.061.007A12.416 12.416 0 012 16c0-1.412.247-2.766.68-4.032l.103.013c.072.01.143.019.217.019a3 3 0 003-3c0-.611-.185-1.18-.5-1.653a12.497 12.497 0 016.135-3.503A2.992 2.992 0 0014.5 6a2.991 2.991 0 002.865-2.156A12.497 12.497 0 0123.5 7.347a2.989 2.989 0 00.287 3.678z" fill="#90CBA4"/><rect x="14" y="14" width="18" height="18" rx="9" fill="#009131"/><path fill-rule="evenodd" clip-rule="evenodd" d="M31.473 19.959A9.003 9.003 0 0126.236 31.4c-.04-.102-.07-.201-.094-.294-.117-.457-.135-1.008-.093-1.587.045-.62.163-1.329.35-2.086-.09.024-.18.046-.27.067-1.256.289-2.861.304-4.535.014-1.674-.289-3.177-.84-4.255-1.532-.538-.345-1.006-.747-1.326-1.201-.323-.459-.527-1.02-.418-1.626.109-.607.497-1.066.96-1.388.46-.32 1.04-.541 1.665-.685.394-.09.823-.154 1.277-.19a8.37 8.37 0 01-.48-1.198c-.186-.603-.28-1.205-.227-1.755.053-.554.265-1.113.746-1.509.481-.395 1.08-.503 1.646-.458.562.045 1.151.24 1.725.524 1.15.57 2.39 1.57 3.482 2.845.882 1.03 1.566 2.12 1.993 3.138.215-.366.433-.7.651-.994.348-.47.724-.88 1.113-1.158.319-.226.797-.465 1.327-.37zm-9.32-2.001c.905.447 1.974 1.288 2.957 2.436.538.628.979 1.265 1.316 1.869-1.01-.532-2.282-.954-3.672-1.194a14.59 14.59 0 00-1.363-.17 7.8 7.8 0 01-.775-1.677c-.147-.476-.19-.857-.164-1.128.026-.267.109-.37.157-.41.05-.04.166-.101.439-.08.278.022.652.13 1.106.354zm4.957 7.18c.01-.063.001-.192-.149-.405-.158-.225-.44-.49-.865-.762-.698-.447-1.686-.856-2.852-1.131-.156-.037-.26.14-.15.253.823.845 1.673 1.474 2.413 1.84.453.225.828.332 1.106.354.273.021.39-.04.438-.08a.288.288 0 00.059-.068zm-6.658-2.642c-.7-.004-1.329.06-1.85.18-.495.114-.852.268-1.08.426-.223.155-.271.277-.282.338-.011.061-.008.191.148.412.158.225.44.49.865.762.848.543 2.125 1.03 3.631 1.29.824.142 1.607.198 2.308.182-.984-.59-2.004-1.466-2.92-2.537-.297-.346-.57-.698-.82-1.053zm9.934-.05c-.59.796-1.232 2.006-1.765 3.442-.534 1.435-.835 2.767-.906 3.747-.021.291-.02.535-.005.731.01.123.152.174.24.086.14-.14.3-.327.476-.563.588-.796 1.23-2.006 1.764-3.442.534-1.435.835-2.767.906-3.747a4.9 4.9 0 00.005-.731c-.01-.123-.151-.174-.24-.086-.14.141-.3.327-.475.564z" fill="#fff"/></g><defs><clipPath id="clip0_1_2"><path fill="#fff" d="M0 0h32v32H0z"/></clipPath></defs></svg>