<svg width="32" height="32" fill="none" xmlns="http://www.w3.org/2000/svg"><g clip-path="url(#clip0_10_2)"><path d="M16 31.995c8.834 0 15.995-7.16 15.995-15.995C31.995 7.166 24.835.005 16 .005 7.166.005.005 7.165.005 16c0 8.834 7.161 15.995 15.995 15.995z" fill="url(#paint0_linear_10_2)"/><g filter="url(#filter0_d_10_2)"><path d="M28.514 11.443l-.667-.263c-4.108-1.616-8.706.022-10.626 3.703-2.501 4.163-2.142 6.927-2.142 6.927.177 2.247 1.688 4.253 3.908 5.12l.517.204.01.005c.671.259 1.42-.046 1.67-.681l.204-.508c.758-1.866.44-4-.84-5.638a6.62 6.62 0 00-.635-.699h.313c.513-.027.853-.054.853-.054l.005.004c3.458-.354 6.436-2.492 7.716-5.628l.404-.999c.231-.59-.077-1.253-.69-1.493z" fill="url(#paint1_linear_10_2)"/></g><g filter="url(#filter1_d_10_2)"><path d="M10.308 3.958l.663.281c4.058 1.739 6.173 6.137 4.947 10.104-1.148 4.716-3.35 6.427-3.35 6.427-1.706 1.476-4.189 1.834-6.381.895l-.509-.218-.009-.005c-.658-.286-.976-1.03-.708-1.661l.213-.508c.777-1.861 2.501-3.155 4.562-3.418.313-.041.631-.06.944-.05a5.07 5.07 0 01-.222-.223c-.345-.38-.568-.64-.568-.64h-.004c-2.21-2.687-2.823-6.3-1.525-9.427l.417-.994c.241-.572.926-.826 1.53-.563z" fill="#FFCB05"/><path d="M10.308 3.958l.663.281c4.058 1.739 6.173 6.137 4.947 10.104-1.148 4.716-3.35 6.427-3.35 6.427-1.706 1.476-4.189 1.834-6.381.895l-.509-.218-.009-.005c-.658-.286-.976-1.03-.708-1.661l.213-.508c.777-1.861 2.501-3.155 4.562-3.418.313-.041.631-.06.944-.05a5.07 5.07 0 01-.222-.223c-.345-.38-.568-.64-.568-.64h-.004c-2.21-2.687-2.823-6.3-1.525-9.427l.417-.994c.241-.572.926-.826 1.53-.563z" fill="url(#paint2_linear_10_2)"/></g><path d="M19.99 19.608h.24c6.314-.045 8.452-5.405 8.452-5.405-2.837 5.519-9.5 2.841-9.5 2.841-.49.785.168 1.866.73 2.564h.078z" fill="#F1B100"/><path d="M19.99 19.608h.24c6.314-.045 8.452-5.405 8.452-5.405-2.837 5.519-9.5 2.841-9.5 2.841-.49.785.168 1.866.73 2.564h.078z" fill="#000" fill-opacity=".2"/><path d="M10.621 15.755l-.172-.173c-4.458-4.47-2.206-9.786-2.206-9.786-1.866 5.92 4.752 8.702 4.752 8.702-.204.903-1.43 1.207-2.324 1.307l-.05-.05z" fill="#F1B100"/><path d="M10.621 15.755l-.172-.173c-4.458-4.47-2.206-9.786-2.206-9.786-1.866 5.92 4.752 8.702 4.752 8.702-.204.903-1.43 1.207-2.324 1.307l-.05-.05z" fill="#000" fill-opacity=".2"/><path d="M20.008 27.23c-.032 0-.068 0-.1-.005.036 0 .068.005.1.005zM19.75 27.202c-.028-.004-.055-.013-.087-.018.027.005.059.014.086.018zM19.631 27.175a1.081 1.081 0 01-.113-.036c.036.013.072.027.113.036zM17.298 25.945zM20.267 27.202zM20.126 27.225c-.023 0-.05.005-.077.005.023-.005.05-.005.077-.005zM16.98 25.668zM15.796 24.157zM16.404 25.05c-.064-.076-.118-.149-.177-.226.054.077.113.154.177.227zM15.387 23.249c-.004-.01-.004-.018-.009-.023.005.005.01.014.01.023z" fill="#F1B100"/><path d="M15.07 21.656v.004c0 .018 0 .032.004.046v.104c.036.481.136.958.295 1.416.005.01.005.018.01.023.08.227.176.454.28.667a5.778 5.778 0 00.554.903c.06.077.114.155.177.227a6.46 6.46 0 00.899.899c.223.181.459.345.704.495.313.19.644.354.985.49l.517.204.01.005c.035.013.076.027.113.036l.036.01c.027.008.054.013.086.017.01 0 .023.005.036.01l.114.013h.014c.031 0 .068.005.1.005h.04c.027 0 .05 0 .077-.005l.041-.005.105-.013c-5.86-2.115-4.235-9.428-3.904-10.694-1.303 2.723-1.32 4.611-1.293 5.143z" fill="#F1B100"/><path d="M15.07 21.656v.004c0 .018 0 .032.004.046v.104c.036.481.136.958.295 1.416.005.01.005.018.01.023.08.227.176.454.28.667a5.778 5.778 0 00.554.903c.06.077.114.155.177.227a6.46 6.46 0 00.899.899c.223.181.459.345.704.495.313.19.644.354.985.49l.517.204.01.005c.035.013.076.027.113.036l.036.01c.027.008.054.013.086.017.01 0 .023.005.036.01l.114.013h.014c.031 0 .068.005.1.005h.04c.027 0 .05 0 .077-.005l.041-.005.105-.013c-5.86-2.115-4.235-9.428-3.904-10.694-1.303 2.723-1.32 4.611-1.293 5.143z" fill="#000" fill-opacity=".2"/><path d="M15.669 23.916c.04.082.081.159.122.236zM16.227 24.824c.059.077.113.154.177.227zM16.404 25.05c.177.219.372.423.576.618zM15.074 21.706c0-.014 0-.028-.005-.046zM15.378 23.226c.005.01.005.018.01.023zM16.98 25.668c.105.095.21.19.323.282zM15.07 21.656c-.028-.531-.01-2.42 1.28-5.148z" fill="#F1B100"/><path d="M15.07 21.656c-.028-.531-.01-2.42 1.28-5.148z" fill="#000" fill-opacity=".2"/><path d="M16.227 24.824a6.436 6.436 0 01-.431-.667zM15.669 23.916a5.33 5.33 0 01-.282-.667zM18.006 26.444c.313.19.645.354.985.49l.518.205.009.004M19.908 27.225c.032 0 .068.005.1.005zM20.162 27.22l.105-.013zM20.049 27.225c.027 0 .05 0 .077-.005zM15.079 21.792v.018c.036.481.136.958.295 1.416M19.781 27.211c-.014 0-.023-.004-.036-.009zM20.162 27.22l-.04.005zM19.781 27.211c.036.005.073.01.114.014zM19.663 27.184c.027.01.054.014.086.018zM19.518 27.139c.036.013.077.027.113.036zM19.663 27.184l-.036-.009zM17.298 25.945c.223.181.459.345.704.495zM5.252 21.16c.022.023.045.046.072.069-.022-.023-.05-.046-.072-.068zM5.456 21.329c.023.018.05.032.073.045-.023-.018-.05-.032-.073-.045zM5.56 21.388l.11.054a.407.407 0 01-.11-.054zM8.08 22.155zM5.088 20.961a1.047 1.047 0 010 0zM10.408 21.942c.086-.028.172-.05.254-.082l-.254.082zM9.346 22.15z" fill="#F1B100"/><path d="M12.682 20.675l-.036.037-.01.009-.022.022-.01.01-.017.013-.005.005-.014.009a5.628 5.628 0 01-1.207.798l-.023.01a5.8 5.8 0 01-.671.276 2.754 2.754 0 01-.255.082 6.41 6.41 0 01-1.062.209c-.281.032-.562.04-.844.032a6.362 6.362 0 01-2.32-.517l-.512-.219-.01-.004-.108-.055-.032-.018a.389.389 0 01-.073-.045l-.031-.018c-.032-.023-.064-.046-.091-.068l-.01-.01c-.027-.022-.05-.045-.072-.068l-.027-.027a.554.554 0 01-.05-.054l-.027-.032c-.023-.027-.041-.055-.064-.086 5.67 2.623 9.66-3.718 10.313-4.853-.999 2.846-2.32 4.204-2.71 4.562z" fill="#F1B100"/><path d="M12.682 20.675l-.036.037-.01.009-.022.022-.01.01-.017.013-.005.005-.014.009a5.628 5.628 0 01-1.207.798l-.023.01a5.8 5.8 0 01-.671.276 2.754 2.754 0 01-.255.082 6.41 6.41 0 01-1.062.209c-.281.032-.562.04-.844.032a6.362 6.362 0 01-2.32-.517l-.512-.219-.01-.004-.108-.055-.032-.018a.389.389 0 01-.073-.045l-.031-.018c-.032-.023-.064-.046-.091-.068l-.01-.01c-.027-.022-.05-.045-.072-.068l-.027-.027a.554.554 0 01-.05-.054l-.027-.032c-.023-.027-.041-.055-.064-.086 5.67 2.623 9.66-3.718 10.313-4.853-.999 2.846-2.32 4.204-2.71 4.562z" fill="#000" fill-opacity=".2"/><path d="M10.667 21.86a2.785 2.785 0 01-.255.082zM9.636 22.114c-.095.014-.19.027-.286.036zM9.346 22.15c-.282.032-.563.041-.844.032zM12.646 20.707l.031-.032zM12.614 20.739l.023-.023zM12.587 20.757l.018-.014zM11.357 21.57l-.023.008z" fill="#F1B100"/><path d="M8.506 22.182a6.93 6.93 0 01-.427-.027zM12.682 20.675c.39-.358 1.711-1.711 2.71-4.557z" fill="#F1B100"/><path d="M12.682 20.675c.39-.358 1.711-1.711 2.71-4.557z" fill="#000" fill-opacity=".2"/><path d="M9.636 22.114c.264-.04.522-.1.777-.172zM10.667 21.86a5.8 5.8 0 00.671-.277zM7.23 22.014a6.394 6.394 0 01-1.043-.345l-.513-.222-.01-.005M5.324 21.229c-.027-.023-.05-.046-.072-.068zM5.147 21.047c-.022-.027-.04-.054-.063-.086zM5.224 21.134c-.018-.018-.031-.037-.05-.055zM12.646 20.707l-.01.009zM12.582 20.761l-.014.01a5.633 5.633 0 01-1.207.798M12.587 20.757l-.005.004zM12.614 20.739l-.01.009zM5.324 21.229l.01.009zM5.429 21.306l.031.018zM5.224 21.134l.028.027zM5.147 21.047l.027.032zM5.429 21.306a1.572 1.572 0 01-.091-.068zM5.529 21.374a.389.389 0 01-.073-.045zM5.665 21.442l-.11-.054zM5.529 21.374l.031.018zM8.08 22.155a6.623 6.623 0 01-.85-.14z" fill="#F1B100"/></g><defs><linearGradient id="paint0_linear_10_2" x1="0" y1="0" x2="32" y2="32" gradientUnits="userSpaceOnUse"><stop stop-color="#16A477"/><stop offset="1" stop-color="#147E5C"/></linearGradient><linearGradient id="paint1_linear_10_2" x1="22.171" y1="10.558" x2="22.171" y2="27.231" gradientUnits="userSpaceOnUse"><stop stop-color="#FFCB05"/><stop offset="1" stop-color="#F1B100"/></linearGradient><linearGradient id="paint2_linear_10_2" x1="10.565" y1="3.854" x2="10.565" y2="22.184" gradientUnits="userSpaceOnUse"><stop stop-color="#FFCB05"/><stop offset="1" stop-color="#F1B100"/></linearGradient><filter id="filter0_d_10_2" x="13.061" y="9.558" width="18.22" height="20.673" filterUnits="userSpaceOnUse" color-interpolation-filters="sRGB"><feFlood flood-opacity="0" result="BackgroundImageFix"/><feColorMatrix in="SourceAlpha" values="0 0 0 0 0 0 0 0 0 0 0 0 0 0 0 0 0 0 127 0" result="hardAlpha"/><feOffset dy="1"/><feGaussianBlur stdDeviation="1"/><feComposite in2="hardAlpha" operator="out"/><feColorMatrix values="0 0 0 0 0 0 0 0 0 0 0 0 0 0 0 0 0 0 0.1 0"/><feBlend in2="BackgroundImageFix" result="effect1_dropShadow_10_2"/><feBlend in="SourceGraphic" in2="effect1_dropShadow_10_2" result="shape"/></filter><filter id="filter1_d_10_2" x="2.866" y="2.854" width="15.399" height="22.33" filterUnits="userSpaceOnUse" color-interpolation-filters="sRGB"><feFlood flood-opacity="0" result="BackgroundImageFix"/><feColorMatrix in="SourceAlpha" values="0 0 0 0 0 0 0 0 0 0 0 0 0 0 0 0 0 0 127 0" result="hardAlpha"/><feOffset dy="1"/><feGaussianBlur stdDeviation="1"/><feComposite in2="hardAlpha" operator="out"/><feColorMatrix values="0 0 0 0 0 0 0 0 0 0 0 0 0 0 0 0 0 0 0.1 0"/><feBlend in2="BackgroundImageFix" result="effect1_dropShadow_10_2"/><feBlend in="SourceGraphic" in2="effect1_dropShadow_10_2" result="shape"/></filter><clipPath id="clip0_10_2"><path fill="#fff" d="M0 0h32v32H0z"/></clipPath></defs></svg>