<svg width="32" height="32" viewBox="0 0 32 32" fill="none" xmlns="http://www.w3.org/2000/svg">
<g clip-path="url(#clip0_10_2)">
<path d="M16 31.9955C24.8341 31.9955 31.9955 24.8341 31.9955 16C31.9955 7.16595 24.8341 0.00453949 16 0.00453949C7.16596 0.00453949 0.00454712 7.16595 0.00454712 16C0.00454712 24.8341 7.16596 31.9955 16 31.9955Z" fill="url(#paint0_linear_10_2)"/>
<g filter="url(#filter0_d_10_2)">
<path d="M28.514 11.4428L27.8468 11.1796C23.739 9.56369 19.141 11.2023 17.221 14.8834C14.72 19.0457 15.0786 21.8099 15.0786 21.8099C15.2556 24.0567 16.7671 26.063 18.9867 26.9299L19.5041 27.1342L19.5132 27.1387C20.185 27.3975 20.9339 27.0933 21.1835 26.4579L21.3878 25.9495C22.1458 24.084 21.8281 21.9506 20.5481 20.3121C20.3529 20.0624 20.1396 19.8309 19.9126 19.6131C20.017 19.6131 20.1214 19.6131 20.2258 19.6131C20.7387 19.5858 21.0791 19.5586 21.0791 19.5586L21.0837 19.5631C24.5424 19.2091 27.52 17.0712 28.8 13.9348L29.204 12.9362C29.4354 12.3461 29.1268 11.6834 28.514 11.4428Z" fill="url(#paint1_linear_10_2)"/>
</g>
<g filter="url(#filter1_d_10_2)">
<path d="M10.3081 3.95802L10.9708 4.23943C15.0286 5.97787 17.1438 10.3762 15.9183 14.3433C14.7699 19.0593 12.5685 20.7705 12.5685 20.7705C10.8618 22.2457 8.379 22.6043 6.18666 21.6647L5.67829 21.4468L5.66922 21.4423C5.01106 21.1563 4.69333 20.4119 4.96113 19.781L5.17446 19.2726C5.95063 17.4116 7.67546 16.118 9.73617 15.8548C10.0494 15.8139 10.3671 15.7957 10.6803 15.8048C10.6031 15.7322 10.5305 15.6596 10.4579 15.5824C10.1129 15.2011 9.89049 14.9424 9.89049 14.9424H9.88595C7.67546 12.2553 7.06269 8.64227 8.36085 5.5149L8.77844 4.52085C9.019 3.94894 9.70439 3.69475 10.3081 3.95802Z" fill="#FFCB05"/>
<path d="M10.3081 3.95802L10.9708 4.23943C15.0286 5.97787 17.1438 10.3762 15.9183 14.3433C14.7699 19.0593 12.5685 20.7705 12.5685 20.7705C10.8618 22.2457 8.379 22.6043 6.18666 21.6647L5.67829 21.4468L5.66922 21.4423C5.01106 21.1563 4.69333 20.4119 4.96113 19.781L5.17446 19.2726C5.95063 17.4116 7.67546 16.118 9.73617 15.8548C10.0494 15.8139 10.3671 15.7957 10.6803 15.8048C10.6031 15.7322 10.5305 15.6596 10.4579 15.5824C10.1129 15.2011 9.89049 14.9424 9.89049 14.9424H9.88595C7.67546 12.2553 7.06269 8.64227 8.36085 5.5149L8.77844 4.52085C9.019 3.94894 9.70439 3.69475 10.3081 3.95802Z" fill="url(#paint2_linear_10_2)"/>
</g>
<path d="M19.9898 19.6085H20.2304C26.5441 19.5631 28.682 14.2026 28.682 14.2026C25.8451 19.722 19.1818 17.044 19.1818 17.044C18.6916 17.8292 19.3498 18.9095 19.9126 19.6085H19.9898Z" fill="#F1B100"/>
<path d="M19.9898 19.6085H20.2304C26.5441 19.5631 28.682 14.2026 28.682 14.2026C25.8451 19.722 19.1818 17.044 19.1818 17.044C18.6916 17.8292 19.3498 18.9095 19.9126 19.6085H19.9898Z" fill="black" fill-opacity="0.2"/>
<path d="M10.6213 15.7549L10.4488 15.5824C5.99149 11.1115 8.24284 5.79631 8.24284 5.79631C6.37731 11.7152 12.9952 14.4976 12.9952 14.4976C12.7909 15.4008 11.5654 15.705 10.6712 15.8048L10.6213 15.7549Z" fill="#F1B100"/>
<path d="M10.6213 15.7549L10.4488 15.5824C5.99149 11.1115 8.24284 5.79631 8.24284 5.79631C6.37731 11.7152 12.9952 14.4976 12.9952 14.4976C12.7909 15.4008 11.5654 15.705 10.6712 15.8048L10.6213 15.7549Z" fill="black" fill-opacity="0.2"/>
<path d="M20.0079 27.2295C19.9762 27.2295 19.9399 27.2295 19.9081 27.225C19.9444 27.225 19.9762 27.2295 20.0079 27.2295Z" fill="#F1B100"/>
<path d="M19.7492 27.2023C19.722 27.1977 19.6947 27.1887 19.663 27.1841C19.6902 27.1887 19.722 27.1977 19.7492 27.2023Z" fill="#F1B100"/>
<path d="M19.6312 27.175C19.5949 27.166 19.554 27.1523 19.5177 27.1387C19.554 27.1523 19.5904 27.166 19.6312 27.175Z" fill="#F1B100"/>
<path d="M17.2982 25.945C17.1892 25.8542 17.0803 25.7589 16.9759 25.6635C17.0848 25.7634 17.1892 25.8587 17.2982 25.945Z" fill="#F1B100"/>
<path d="M20.2667 27.2023C20.2303 27.2113 20.1986 27.2159 20.1623 27.2159C20.1986 27.2159 20.2349 27.2113 20.2667 27.2023Z" fill="#F1B100"/>
<path d="M20.126 27.225C20.1033 27.225 20.076 27.2295 20.0488 27.2295C20.0715 27.225 20.0987 27.225 20.126 27.225Z" fill="#F1B100"/>
<path d="M16.9804 25.6681C16.7762 25.4774 16.581 25.2687 16.404 25.0508C16.581 25.2687 16.7716 25.4774 16.9804 25.6681Z" fill="#F1B100"/>
<path d="M15.7957 24.1566C15.7504 24.0794 15.7095 23.9977 15.6732 23.9206C15.7095 23.9977 15.7504 24.0749 15.7957 24.1566Z" fill="#F1B100"/>
<path d="M16.404 25.0508C16.3404 24.9736 16.286 24.901 16.227 24.8238C16.2814 24.901 16.3404 24.9782 16.404 25.0508Z" fill="#F1B100"/>
<path d="M15.3872 23.2488C15.3827 23.2397 15.3827 23.2306 15.3781 23.2261C15.3827 23.2306 15.3872 23.2397 15.3872 23.2488Z" fill="#F1B100"/>
<path d="M15.0695 21.6556V21.6601C15.0695 21.6783 15.0695 21.6919 15.074 21.7055C15.074 21.7101 15.074 21.7146 15.074 21.7146C15.074 21.7282 15.074 21.7373 15.074 21.7464C15.074 21.7555 15.074 21.7555 15.074 21.76C15.074 21.7645 15.074 21.7736 15.074 21.7827C15.074 21.7872 15.074 21.7872 15.074 21.7918C15.074 21.8009 15.074 21.8099 15.074 21.8099C15.1103 22.2911 15.2102 22.7677 15.3691 23.2261C15.3736 23.2352 15.3736 23.2443 15.3781 23.2488C15.4598 23.4757 15.5552 23.7027 15.6596 23.916C15.7004 23.9977 15.7413 24.0749 15.7821 24.1521C15.9092 24.3835 16.0545 24.606 16.2133 24.8193C16.2723 24.8965 16.3268 24.9736 16.3903 25.0462C16.5674 25.2641 16.7625 25.4684 16.9668 25.6635C17.0712 25.7589 17.1756 25.8542 17.2891 25.945C17.5115 26.1265 17.7475 26.2899 17.9926 26.4397C18.3058 26.6304 18.6372 26.7938 18.9776 26.9299L19.495 27.1342L19.5041 27.1387C19.5404 27.1523 19.5813 27.166 19.6176 27.175L19.6539 27.1841C19.6811 27.1932 19.7084 27.1977 19.7401 27.2023C19.7492 27.2023 19.7628 27.2068 19.7764 27.2113C19.8128 27.2159 19.8491 27.2204 19.8899 27.225H19.9035C19.9353 27.225 19.9716 27.2295 20.0034 27.2295H20.0442C20.0715 27.2295 20.0942 27.2295 20.1214 27.225L20.1623 27.2204C20.1986 27.2159 20.2303 27.2114 20.2667 27.2068C14.4068 25.0916 16.0318 17.7793 16.3631 16.5129C15.0604 19.2363 15.0423 21.1245 15.0695 21.6556Z" fill="#F1B100"/>
<path d="M15.0695 21.6556V21.6601C15.0695 21.6783 15.0695 21.6919 15.074 21.7055C15.074 21.7101 15.074 21.7146 15.074 21.7146C15.074 21.7282 15.074 21.7373 15.074 21.7464C15.074 21.7555 15.074 21.7555 15.074 21.76C15.074 21.7645 15.074 21.7736 15.074 21.7827C15.074 21.7872 15.074 21.7872 15.074 21.7918C15.074 21.8009 15.074 21.8099 15.074 21.8099C15.1103 22.2911 15.2102 22.7677 15.3691 23.2261C15.3736 23.2352 15.3736 23.2443 15.3781 23.2488C15.4598 23.4757 15.5552 23.7027 15.6596 23.916C15.7004 23.9977 15.7413 24.0749 15.7821 24.1521C15.9092 24.3835 16.0545 24.606 16.2133 24.8193C16.2723 24.8965 16.3268 24.9736 16.3903 25.0462C16.5674 25.2641 16.7625 25.4684 16.9668 25.6635C17.0712 25.7589 17.1756 25.8542 17.2891 25.945C17.5115 26.1265 17.7475 26.2899 17.9926 26.4397C18.3058 26.6304 18.6372 26.7938 18.9776 26.9299L19.495 27.1342L19.5041 27.1387C19.5404 27.1523 19.5813 27.166 19.6176 27.175L19.6539 27.1841C19.6811 27.1932 19.7084 27.1977 19.7401 27.2023C19.7492 27.2023 19.7628 27.2068 19.7764 27.2113C19.8128 27.2159 19.8491 27.2204 19.8899 27.225H19.9035C19.9353 27.225 19.9716 27.2295 20.0034 27.2295H20.0442C20.0715 27.2295 20.0942 27.2295 20.1214 27.225L20.1623 27.2204C20.1986 27.2159 20.2303 27.2114 20.2667 27.2068C14.4068 25.0916 16.0318 17.7793 16.3631 16.5129C15.0604 19.2363 15.0423 21.1245 15.0695 21.6556Z" fill="black" fill-opacity="0.2"/>
<path d="M15.6686 23.916C15.7095 23.9977 15.7503 24.0749 15.7912 24.1521Z" fill="#F1B100"/>
<path d="M16.227 24.8238C16.286 24.901 16.3404 24.9782 16.404 25.0508Z" fill="#F1B100"/>
<path d="M16.404 25.0508C16.581 25.2687 16.7762 25.4729 16.9804 25.6681Z" fill="#F1B100"/>
<path d="M15.0741 21.7055C15.0741 21.6919 15.0741 21.6783 15.0695 21.6601Z" fill="#F1B100"/>
<path d="M15.3781 23.2261C15.3827 23.2352 15.3827 23.2443 15.3872 23.2488Z" fill="#F1B100"/>
<path d="M16.9804 25.6681C17.0848 25.7634 17.1892 25.8587 17.3027 25.9495Z" fill="#F1B100"/>
<path d="M15.0695 21.6556C15.0423 21.1245 15.0604 19.2363 16.3495 16.5084Z" fill="#F1B100"/>
<path d="M15.0695 21.6556C15.0423 21.1245 15.0604 19.2363 16.3495 16.5084Z" fill="black" fill-opacity="0.2"/>
<path d="M16.227 24.8238C16.0681 24.6105 15.9274 24.3881 15.7957 24.1566Z" fill="#F1B100"/>
<path d="M15.6687 23.916C15.5597 23.6982 15.4644 23.4757 15.3872 23.2488Z" fill="#F1B100"/>
<path d="M18.0062 26.4443C18.3194 26.6349 18.6508 26.7983 18.9912 26.9345L19.5086 27.1387L19.5177 27.1433" fill="#F1B100"/>
<path d="M19.9081 27.225C19.9399 27.225 19.9762 27.2295 20.0079 27.2295Z" fill="#F1B100"/>
<path d="M20.1623 27.2204C20.1986 27.2159 20.2303 27.2113 20.2667 27.2068Z" fill="#F1B100"/>
<path d="M20.0488 27.225C20.076 27.225 20.0987 27.225 20.126 27.2204Z" fill="#F1B100"/>
<path d="M15.0786 21.7918C15.0786 21.8008 15.0786 21.8099 15.0786 21.8099C15.1149 22.2911 15.2148 22.7677 15.3736 23.2261" fill="#F1B100"/>
<path d="M19.781 27.2113C19.7674 27.2113 19.7583 27.2068 19.7447 27.2023Z" fill="#F1B100"/>
<path d="M20.1623 27.2204L20.1214 27.225Z" fill="#F1B100"/>
<path d="M19.781 27.2113C19.8173 27.2159 19.8536 27.2204 19.8945 27.225Z" fill="#F1B100"/>
<path d="M19.663 27.1841C19.6902 27.1932 19.7174 27.1977 19.7492 27.2023Z" fill="#F1B100"/>
<path d="M19.5177 27.1387C19.554 27.1523 19.5949 27.166 19.6312 27.175Z" fill="#F1B100"/>
<path d="M19.663 27.1841L19.6267 27.175Z" fill="#F1B100"/>
<path d="M17.2982 25.945C17.5206 26.1265 17.7566 26.2899 18.0017 26.4397Z" fill="#F1B100"/>
<path d="M5.25163 21.1609C5.27433 21.1835 5.29702 21.2062 5.32426 21.2289C5.30156 21.2062 5.27433 21.1835 5.25163 21.1609Z" fill="#F1B100"/>
<path d="M5.45589 21.3288C5.47858 21.347 5.50582 21.3606 5.52851 21.3742C5.50582 21.356 5.47858 21.3424 5.45589 21.3288Z" fill="#F1B100"/>
<path d="M5.56029 21.3878C5.5966 21.406 5.63291 21.4241 5.66922 21.4423C5.62837 21.4287 5.59206 21.4105 5.56029 21.3878Z" fill="#F1B100"/>
<path d="M8.07944 22.1549C8.22015 22.1685 8.36539 22.1776 8.5061 22.1821C8.36086 22.1776 8.22015 22.1685 8.07944 22.1549Z" fill="#F1B100"/>
<path d="M5.08823 20.9611C5.10638 20.9929 5.12908 21.0201 5.15177 21.0474C5.12908 21.0201 5.10638 20.9884 5.08823 20.9611Z" fill="#F1B100"/>
<path d="M10.4079 21.9416C10.4942 21.9143 10.5804 21.8916 10.6621 21.8599C10.5804 21.8871 10.4942 21.9143 10.4079 21.9416Z" fill="#F1B100"/>
<path d="M9.34581 22.1504C9.44113 22.1413 9.53645 22.1277 9.63177 22.114C9.54099 22.1277 9.44567 22.1413 9.34581 22.1504Z" fill="#F1B100"/>
<path d="M12.682 20.6752L12.6457 20.7115L12.6366 20.7206L12.6139 20.7433L12.6048 20.7523L12.5867 20.766L12.5821 20.7705L12.5685 20.7796C12.2008 21.0973 11.7969 21.3651 11.3611 21.5784L11.3384 21.5875C11.1206 21.6919 10.8982 21.7872 10.6667 21.8644C10.5804 21.8962 10.4987 21.9234 10.4125 21.9461C10.1583 22.0187 9.89957 22.0777 9.63631 22.1186C9.54099 22.1322 9.44567 22.1458 9.35035 22.1549C9.06893 22.1867 8.78752 22.1957 8.5061 22.1867C8.36539 22.1821 8.22468 22.1731 8.07943 22.1594C7.42581 22.0959 6.79035 21.9279 6.18667 21.6692L5.67376 21.4514L5.66468 21.4468C5.62837 21.4287 5.59206 21.4105 5.55574 21.3923L5.52397 21.3742C5.49674 21.3606 5.47404 21.347 5.45135 21.3288L5.41957 21.3106C5.3878 21.2879 5.35603 21.2653 5.32879 21.2426L5.31971 21.2335C5.29248 21.2108 5.26979 21.1881 5.24709 21.1654C5.23801 21.1563 5.22893 21.1472 5.21986 21.1382C5.2017 21.12 5.18354 21.1018 5.16993 21.0837L5.14269 21.0519C5.12 21.0247 5.10184 20.9975 5.07915 20.9657C10.7484 23.5892 14.7382 17.2482 15.3918 16.1135C14.3932 18.9594 13.0723 20.3166 12.682 20.6752Z" fill="#F1B100"/>
<path d="M12.682 20.6752L12.6457 20.7115L12.6366 20.7206L12.6139 20.7433L12.6048 20.7523L12.5867 20.766L12.5821 20.7705L12.5685 20.7796C12.2008 21.0973 11.7969 21.3651 11.3611 21.5784L11.3384 21.5875C11.1206 21.6919 10.8982 21.7872 10.6667 21.8644C10.5804 21.8962 10.4987 21.9234 10.4125 21.9461C10.1583 22.0187 9.89957 22.0777 9.63631 22.1186C9.54099 22.1322 9.44567 22.1458 9.35035 22.1549C9.06893 22.1867 8.78752 22.1957 8.5061 22.1867C8.36539 22.1821 8.22468 22.1731 8.07943 22.1594C7.42581 22.0959 6.79035 21.9279 6.18667 21.6692L5.67376 21.4514L5.66468 21.4468C5.62837 21.4287 5.59206 21.4105 5.55574 21.3923L5.52397 21.3742C5.49674 21.3606 5.47404 21.347 5.45135 21.3288L5.41957 21.3106C5.3878 21.2879 5.35603 21.2653 5.32879 21.2426L5.31971 21.2335C5.29248 21.2108 5.26979 21.1881 5.24709 21.1654C5.23801 21.1563 5.22893 21.1472 5.21986 21.1382C5.2017 21.12 5.18354 21.1018 5.16993 21.0837L5.14269 21.0519C5.12 21.0247 5.10184 20.9975 5.07915 20.9657C10.7484 23.5892 14.7382 17.2482 15.3918 16.1135C14.3932 18.9594 13.0723 20.3166 12.682 20.6752Z" fill="black" fill-opacity="0.2"/>
<path d="M10.6667 21.8599C10.5804 21.8916 10.4987 21.9189 10.4125 21.9416Z" fill="#F1B100"/>
<path d="M9.63631 22.114C9.541 22.1277 9.44568 22.1413 9.35036 22.1504Z" fill="#F1B100"/>
<path d="M9.34581 22.1504C9.06439 22.1821 8.78297 22.1912 8.50156 22.1821Z" fill="#F1B100"/>
<path d="M12.6457 20.707L12.6774 20.6752Z" fill="#F1B100"/>
<path d="M12.6139 20.7387L12.6366 20.716Z" fill="#F1B100"/>
<path d="M12.5867 20.7569L12.6048 20.7433Z" fill="#F1B100"/>
<path d="M11.3566 21.5694L11.3339 21.5784Z" fill="#F1B100"/>
<path d="M8.5061 22.1821C8.36539 22.1776 8.22469 22.1685 8.07944 22.1549Z" fill="#F1B100"/>
<path d="M12.682 20.6752C13.0723 20.3166 14.3932 18.964 15.3918 16.118Z" fill="#F1B100"/>
<path d="M12.682 20.6752C13.0723 20.3166 14.3932 18.964 15.3918 16.118Z" fill="black" fill-opacity="0.2"/>
<path d="M9.63631 22.114C9.89957 22.0732 10.1583 22.0142 10.4125 21.9416Z" fill="#F1B100"/>
<path d="M10.6667 21.8599C10.8982 21.7827 11.1206 21.6874 11.3384 21.583Z" fill="#F1B100"/>
<path d="M7.23065 22.0142C6.87206 21.9279 6.52256 21.8145 6.18667 21.6692L5.67377 21.4468L5.66469 21.4423" fill="#F1B100"/>
<path d="M5.32426 21.2289C5.29702 21.2062 5.27433 21.1835 5.25163 21.1609Z" fill="#F1B100"/>
<path d="M5.14724 21.0474C5.12455 21.0201 5.10639 20.9929 5.08369 20.9611Z" fill="#F1B100"/>
<path d="M5.2244 21.1336C5.20624 21.1155 5.19263 21.0973 5.17447 21.0791Z" fill="#F1B100"/>
<path d="M12.6457 20.707L12.6366 20.716Z" fill="#F1B100"/>
<path d="M12.5821 20.7614L12.5685 20.7705C12.2008 21.0882 11.7969 21.356 11.3611 21.5694" fill="#F1B100"/>
<path d="M12.5867 20.7569L12.5821 20.7614Z" fill="#F1B100"/>
<path d="M12.6139 20.7387L12.6048 20.7478Z" fill="#F1B100"/>
<path d="M5.32425 21.2289L5.33333 21.238Z" fill="#F1B100"/>
<path d="M5.42865 21.3061L5.46042 21.3243Z" fill="#F1B100"/>
<path d="M5.2244 21.1336C5.23347 21.1427 5.24255 21.1518 5.25163 21.1609Z" fill="#F1B100"/>
<path d="M5.14723 21.0474L5.17447 21.0792Z" fill="#F1B100"/>
<path d="M5.42866 21.3061C5.39688 21.2834 5.36511 21.2607 5.33788 21.238Z" fill="#F1B100"/>
<path d="M5.52851 21.3742C5.50128 21.3606 5.47858 21.347 5.45589 21.3288Z" fill="#F1B100"/>
<path d="M5.66468 21.4423C5.62836 21.4241 5.59205 21.406 5.55574 21.3878Z" fill="#F1B100"/>
<path d="M5.5285 21.3742L5.56028 21.3923Z" fill="#F1B100"/>
<path d="M8.07943 22.1549C7.79347 22.1277 7.50752 22.0777 7.23064 22.0142Z" fill="#F1B100"/>
</g>
<defs>
<filter id="filter0_d_10_2" x="13.0608" y="9.55788" width="18.2201" height="20.6731" filterUnits="userSpaceOnUse" color-interpolation-filters="sRGB">
<feFlood flood-opacity="0" result="BackgroundImageFix"/>
<feColorMatrix in="SourceAlpha" type="matrix" values="0 0 0 0 0 0 0 0 0 0 0 0 0 0 0 0 0 0 127 0" result="hardAlpha"/>
<feOffset dy="1"/>
<feGaussianBlur stdDeviation="1"/>
<feComposite in2="hardAlpha" operator="out"/>
<feColorMatrix type="matrix" values="0 0 0 0 0 0 0 0 0 0 0 0 0 0 0 0 0 0 0.1 0"/>
<feBlend mode="normal" in2="BackgroundImageFix" result="effect1_dropShadow_10_2"/>
<feBlend mode="normal" in="SourceGraphic" in2="effect1_dropShadow_10_2" result="shape"/>
</filter>
<filter id="filter1_d_10_2" x="2.8661" y="2.854" width="15.3985" height="22.3297" filterUnits="userSpaceOnUse" color-interpolation-filters="sRGB">
<feFlood flood-opacity="0" result="BackgroundImageFix"/>
<feColorMatrix in="SourceAlpha" type="matrix" values="0 0 0 0 0 0 0 0 0 0 0 0 0 0 0 0 0 0 127 0" result="hardAlpha"/>
<feOffset dy="1"/>
<feGaussianBlur stdDeviation="1"/>
<feComposite in2="hardAlpha" operator="out"/>
<feColorMatrix type="matrix" values="0 0 0 0 0 0 0 0 0 0 0 0 0 0 0 0 0 0 0.1 0"/>
<feBlend mode="normal" in2="BackgroundImageFix" result="effect1_dropShadow_10_2"/>
<feBlend mode="normal" in="SourceGraphic" in2="effect1_dropShadow_10_2" result="shape"/>
</filter>
<linearGradient id="paint0_linear_10_2" x1="0" y1="0" x2="32" y2="32" gradientUnits="userSpaceOnUse">
<stop stop-color="#16A477"/>
<stop offset="1" stop-color="#147E5C"/>
</linearGradient>
<linearGradient id="paint1_linear_10_2" x1="22.1708" y1="10.5579" x2="22.1708" y2="27.231" gradientUnits="userSpaceOnUse">
<stop stop-color="#FFCB05"/>
<stop offset="1" stop-color="#F1B100"/>
</linearGradient>
<linearGradient id="paint2_linear_10_2" x1="10.5654" y1="3.854" x2="10.5654" y2="22.1837" gradientUnits="userSpaceOnUse">
<stop stop-color="#FFCB05"/>
<stop offset="1" stop-color="#F1B100"/>
</linearGradient>
<clipPath id="clip0_10_2">
<rect width="32" height="32" fill="white"/>
</clipPath>
</defs>
</svg>
