<svg width="32" height="32" viewBox="0 0 32 32" fill="none" xmlns="http://www.w3.org/2000/svg">
<g clip-path="url(#clip0_1_2)">
<path fill-rule="evenodd" clip-rule="evenodd" d="M11.5928 19.2647C9.72737 18.1002 8.48333 16.0082 8.48333 13.6213C8.48333 9.96483 11.4011 7 15 7C17.7418 7 20.089 8.72087 21.0514 11.1574C16.5973 11.8847 12.9673 15.0642 11.5928 19.2647ZM13.1684 29.8821C9.99644 29.4708 7.15204 28.0064 5 25.8554C6.41823 24.4818 8.52101 23.4188 11.0008 22.8605C11.0003 22.9069 11 22.9534 11 23C11 25.5605 11.8019 27.9337 13.1684 29.8821Z" fill="#009131"/>
<path fill-rule="evenodd" clip-rule="evenodd" d="M23.7868 11.0254C25.4852 11.1353 27.0873 11.5986 28.5204 12.3424C28.4094 11.9226 28.2804 11.51 28.135 11.105C28.669 10.563 29 9.821 29 9C29 7.343 27.657 6 26 6C25.69 6 25.398 6.061 25.117 6.147C23.058 3.93 20.321 2.354 17.228 1.765C16.756 0.726 15.715 0 14.5 0C13.285 0 12.244 0.726 11.772 1.765C8.679 2.354 5.942 3.93 3.883 6.147C3.602 6.061 3.31 6 3 6C1.343 6 0 7.343 0 9C0 9.821 0.331 10.563 0.865 11.105C0.315 12.637 0 14.279 0 16C0 17.863 0.364 19.639 1.004 21.275C0.393 21.824 0 22.613 0 23.5C0 25.157 1.343 26.5 3 26.5C3.438 26.5 3.852 26.4 4.228 26.231C6.243 28.255 8.854 29.679 11.772 30.235C12.244 31.274 13.285 32 14.5 32C14.675 32 14.8464 31.9849 15.013 31.956C13.6632 30.7514 12.5874 29.2461 11.8908 27.5454C11.7845 27.7371 11.6983 27.9417 11.635 28.156C9.342 27.615 7.285 26.452 5.671 24.84C5.875 24.435 6 23.984 6 23.5C6 21.843 4.657 20.5 3 20.5C2.97195 20.5 2.94489 20.5039 2.91787 20.5079C2.89768 20.5108 2.87752 20.5137 2.857 20.515C2.311 19.112 2 17.593 2 16C2 14.588 2.247 13.234 2.68 11.968C2.7147 11.9716 2.74909 11.9762 2.78344 11.9808C2.85499 11.9904 2.92635 12 3 12C4.657 12 6 10.657 6 9C6 8.389 5.815 7.82 5.5 7.347C7.141 5.642 9.257 4.405 11.635 3.844C12.002 5.087 13.139 6 14.5 6C15.862 6 16.998 5.087 17.365 3.844C19.743 4.405 21.859 5.642 23.5 7.347C23.185 7.82 23 8.389 23 9C23 9.78071 23.2981 10.4917 23.7868 11.0254Z" fill="#90CBA4"/>
<rect x="14" y="14" width="18" height="18" rx="9" fill="#009131"/>
<path fill-rule="evenodd" clip-rule="evenodd" d="M31.4731 19.9585C31.8142 20.9085 32 21.9326 32 23C32 26.8298 29.6079 30.1008 26.2363 31.4006C26.1964 31.2994 26.1658 31.1999 26.1421 31.1073C26.0254 30.65 26.007 30.0991 26.0489 29.5196C26.0938 28.8995 26.2122 28.1912 26.3986 27.4336C26.3096 27.4579 26.2194 27.4805 26.1282 27.5015C24.8734 27.7898 23.268 27.8046 21.5942 27.5154C19.9204 27.2263 18.417 26.6744 17.3386 25.983C16.8007 25.6382 16.3333 25.2362 16.0131 24.7817C15.69 24.3232 15.4857 23.7619 15.5948 23.1557C15.7039 22.5494 16.0918 22.0904 16.5555 21.7679C17.0151 21.4481 17.5946 21.227 18.2204 21.0832C18.6143 20.9926 19.0428 20.9291 19.4971 20.8934C19.297 20.4832 19.1356 20.0811 19.0168 19.6953C18.8309 19.0924 18.7367 18.4901 18.7895 17.9403C18.8428 17.3856 19.0546 16.827 19.5359 16.4313C20.0173 16.0356 20.6156 15.9283 21.1824 15.9732C21.7442 16.0177 22.3332 16.2132 22.907 16.4972C24.0574 17.0665 25.2968 18.0662 26.3893 19.3418C27.2709 20.3712 27.9552 21.4616 28.3824 22.4795C28.597 22.1138 28.8155 21.7803 29.0334 21.4859C29.3814 21.0156 29.757 20.6052 30.1465 20.3284C30.4645 20.1023 30.9432 19.8625 31.4731 19.9585ZM22.1539 17.9578C23.0581 18.4053 24.1271 19.2462 25.1098 20.3937C25.6477 21.0217 26.0888 21.6587 26.4259 22.2625C25.4167 21.7306 24.1443 21.3093 22.7543 21.0692C22.2928 20.9895 21.8365 20.9329 21.3913 20.8987C21.0327 20.3012 20.772 19.7294 20.6157 19.2223C20.4688 18.7457 20.4263 18.3655 20.4524 18.0937C20.4781 17.8268 20.5609 17.7249 20.6095 17.6849C20.6582 17.6449 20.7751 17.5827 21.0478 17.6043C21.3255 17.6263 21.7003 17.7333 22.1539 17.9578ZM27.1099 25.1386C27.1195 25.075 27.1114 24.9461 26.961 24.7327C26.8027 24.508 26.5207 24.2435 26.0955 23.9709C25.3983 23.5239 24.4101 23.1154 23.2435 22.8397C23.088 22.803 22.9841 22.9796 23.0945 23.0929C23.9173 23.938 24.7672 24.5672 25.5069 24.9333C25.9604 25.1578 26.3352 25.2648 26.613 25.2868C26.8857 25.3084 27.0025 25.2462 27.0512 25.2062C27.0679 25.1925 27.0888 25.1713 27.1099 25.1386ZM20.4519 22.4961C19.7523 22.4919 19.1233 22.5565 18.6018 22.6763C18.107 22.79 17.7497 22.9441 17.5225 23.1021C17.2994 23.2573 17.2507 23.3786 17.2397 23.4398C17.2287 23.5011 17.2321 23.6314 17.3876 23.852C17.5459 24.0766 17.8279 24.3411 18.2531 24.6137C19.1008 25.1572 20.3785 25.6437 21.8842 25.9039C22.7076 26.0461 23.4905 26.1019 24.1922 26.0862C23.2081 25.4956 22.188 24.6195 21.2714 23.5493C20.9752 23.2034 20.7013 22.8507 20.4519 22.4961ZM30.3856 22.4465C29.7969 23.2419 29.1541 24.4521 28.6208 25.8877C28.0874 27.3234 27.7859 28.6553 27.715 29.6354C27.6939 29.9265 27.6945 30.17 27.71 30.3663C27.7197 30.4893 27.8616 30.5399 27.9497 30.4518C28.0903 30.3112 28.2506 30.125 28.4255 29.8887C29.0141 29.0933 29.6569 27.8831 30.1903 26.4474C30.7236 25.0118 31.0252 23.6799 31.0961 22.6998C31.1172 22.4087 31.1166 22.1651 31.101 21.9688C31.0913 21.8459 30.9495 21.7953 30.8614 21.8834C30.7207 22.024 30.5604 22.2102 30.3856 22.4465Z" fill="white"/>
</g>
<defs>
<clipPath id="clip0_1_2">
<rect width="32" height="32" fill="white"/>
</clipPath>
</defs>
</svg>