<svg width="32" height="32" viewBox="0 0 32 32" fill="none" xmlns="http://www.w3.org/2000/svg">
<g clip-path="url(#clip0_9_2)">
<path fill-rule="evenodd" clip-rule="evenodd" d="M11.5928 19.2647C9.72737 18.1002 8.48333 16.0082 8.48333 13.6213C8.48333 9.96483 11.4011 7 15 7C17.7418 7 20.089 8.72087 21.0514 11.1574C16.5973 11.8847 12.9673 15.0642 11.5928 19.2647ZM13.1684 29.8821C9.99644 29.4708 7.15204 28.0064 5 25.8554C6.41823 24.4818 8.52101 23.4188 11.0008 22.8605C11.0003 22.9069 11 22.9534 11 23C11 25.5605 11.8019 27.9337 13.1684 29.8821Z" fill="#16A477"/>
<path fill-rule="evenodd" clip-rule="evenodd" d="M23.7868 11.0254C25.4852 11.1353 27.0873 11.5986 28.5204 12.3424C28.4094 11.9226 28.2804 11.51 28.135 11.105C28.669 10.563 29 9.821 29 9C29 7.343 27.657 6 26 6C25.69 6 25.398 6.061 25.117 6.147C23.058 3.93 20.321 2.354 17.228 1.765C16.756 0.726 15.715 0 14.5 0C13.285 0 12.244 0.726 11.772 1.765C8.679 2.354 5.942 3.93 3.883 6.147C3.602 6.061 3.31 6 3 6C1.343 6 0 7.343 0 9C0 9.821 0.331 10.563 0.865 11.105C0.315 12.637 0 14.279 0 16C0 17.863 0.364 19.639 1.004 21.275C0.393 21.824 0 22.613 0 23.5C0 25.157 1.343 26.5 3 26.5C3.438 26.5 3.852 26.4 4.228 26.231C6.243 28.255 8.854 29.679 11.772 30.235C12.244 31.274 13.285 32 14.5 32C14.675 32 14.8464 31.9849 15.013 31.956C13.6632 30.7514 12.5874 29.2461 11.8908 27.5454C11.7845 27.7371 11.6983 27.9417 11.635 28.156C9.342 27.615 7.285 26.452 5.671 24.84C5.875 24.435 6 23.984 6 23.5C6 21.843 4.657 20.5 3 20.5C2.97195 20.5 2.94489 20.5039 2.91787 20.5079C2.89768 20.5108 2.87752 20.5137 2.857 20.515C2.311 19.112 2 17.593 2 16C2 14.588 2.247 13.234 2.68 11.968C2.7147 11.9716 2.74909 11.9762 2.78344 11.9808C2.85499 11.9904 2.92635 12 3 12C4.657 12 6 10.657 6 9C6 8.389 5.815 7.82 5.5 7.347C7.141 5.642 9.257 4.405 11.635 3.844C12.002 5.087 13.139 6 14.5 6C15.862 6 16.998 5.087 17.365 3.844C19.743 4.405 21.859 5.642 23.5 7.347C23.185 7.82 23 8.389 23 9C23 9.78071 23.2981 10.4917 23.7868 11.0254Z" fill="#9FE0CC"/>
<g clip-path="url(#clip1_9_2)">
<path d="M23 31.9974C27.9691 31.9974 31.9974 27.9692 31.9974 23C31.9974 18.0308 27.9691 14.0026 23 14.0026C18.0308 14.0026 14.0025 18.0308 14.0025 23C14.0025 27.9692 18.0308 31.9974 23 31.9974Z" fill="#16A477"/>
<path d="M30.0391 20.4366L29.6638 20.2885C27.3532 19.3796 24.7668 20.3013 23.6868 22.3719C22.28 24.7132 22.4817 26.2681 22.4817 26.2681C22.5813 27.5319 23.4315 28.6604 24.68 29.1481L24.9711 29.263L24.9762 29.2655C25.354 29.4111 25.7753 29.24 25.9157 28.8826L26.0306 28.5966C26.457 27.5472 26.2783 26.3472 25.5583 25.4255C25.4485 25.2851 25.3285 25.1549 25.2008 25.0323C25.2596 25.0323 25.3183 25.0323 25.377 25.0323C25.6655 25.017 25.857 25.0017 25.857 25.0017L25.8596 25.0043C27.8051 24.8051 29.48 23.6026 30.2 21.8383L30.4272 21.2766C30.5574 20.9447 30.3838 20.5719 30.0391 20.4366Z" fill="#FFCB05"/>
<path d="M19.7983 16.2264L20.1711 16.3847C22.4536 17.3626 23.6434 19.8366 22.954 22.0681C22.3081 24.7209 21.0698 25.6834 21.0698 25.6834C20.1098 26.5132 18.7132 26.7149 17.48 26.1864L17.194 26.0638L17.1889 26.0613C16.8187 25.9004 16.64 25.4817 16.7906 25.1268L16.9106 24.8409C17.3472 23.794 18.3174 23.0664 19.4766 22.9183C19.6528 22.8953 19.8315 22.8851 20.0077 22.8902C19.9643 22.8494 19.9234 22.8085 19.8825 22.7651C19.6885 22.5506 19.5634 22.4051 19.5634 22.4051H19.5608C18.3174 20.8936 17.9728 18.8613 18.703 17.1021L18.9379 16.543C19.0732 16.2213 19.4587 16.0783 19.7983 16.2264Z" fill="#FFCB05"/>
<path d="M25.2443 25.0298H25.3796C28.9311 25.0043 30.1336 21.9889 30.1336 21.9889C28.5379 25.0936 24.7898 23.5872 24.7898 23.5872C24.514 24.0289 24.8843 24.6366 25.2009 25.0298H25.2443Z" fill="#F1B100"/>
<path d="M19.9745 22.8621L19.8775 22.7651C17.3702 20.2502 18.6366 17.2604 18.6366 17.2604C17.5872 20.5898 21.3098 22.1549 21.3098 22.1549C21.1949 22.663 20.5055 22.834 20.0026 22.8902L19.9745 22.8621Z" fill="#F1B100"/>
<path d="M25.2545 29.3166C25.2366 29.3166 25.2162 29.3166 25.1983 29.314C25.2187 29.314 25.2366 29.3166 25.2545 29.3166Z" fill="#F1B100"/>
<path d="M25.1089 29.3013C25.0936 29.2987 25.0783 29.2936 25.0604 29.2911C25.0757 29.2936 25.0936 29.2987 25.1089 29.3013Z" fill="#F1B100"/>
<path d="M25.0426 29.286C25.0221 29.2809 24.9992 29.2732 24.9787 29.2655C24.9992 29.2732 25.0196 29.2809 25.0426 29.286Z" fill="#F1B100"/>
<path d="M23.7302 28.594C23.6689 28.543 23.6077 28.4894 23.5489 28.4357C23.6102 28.4919 23.6689 28.5455 23.7302 28.594Z" fill="#F1B100"/>
<path d="M25.4 29.3013C25.3796 29.3064 25.3617 29.3089 25.3413 29.3089C25.3617 29.3089 25.3821 29.3064 25.4 29.3013Z" fill="#F1B100"/>
<path d="M25.3209 29.314C25.3081 29.314 25.2928 29.3166 25.2775 29.3166C25.2902 29.314 25.3055 29.314 25.3209 29.314Z" fill="#F1B100"/>
<path d="M23.5515 28.4383C23.4366 28.3311 23.3268 28.2136 23.2272 28.0911C23.3268 28.2136 23.434 28.3311 23.5515 28.4383Z" fill="#F1B100"/>
<path d="M22.8851 27.5881C22.8596 27.5447 22.8366 27.4987 22.8162 27.4553C22.8366 27.4987 22.8596 27.5421 22.8851 27.5881Z" fill="#F1B100"/>
<path d="M23.2272 28.0911C23.1915 28.0477 23.1608 28.0068 23.1277 27.9634C23.1583 28.0068 23.1915 28.0502 23.2272 28.0911Z" fill="#F1B100"/>
<path d="M22.6553 27.0774C22.6528 27.0723 22.6528 27.0672 22.6502 27.0647C22.6528 27.0672 22.6553 27.0723 22.6553 27.0774Z" fill="#F1B100"/>
<path d="M22.4766 26.1813V26.1838C22.4766 26.194 22.4766 26.2017 22.4792 26.2094C22.4792 26.2119 22.4792 26.2145 22.4792 26.2145C22.4792 26.2221 22.4792 26.2272 22.4792 26.2323C22.4792 26.2374 22.4792 26.2374 22.4792 26.24C22.4792 26.2426 22.4792 26.2477 22.4792 26.2528C22.4792 26.2553 22.4792 26.2553 22.4792 26.2579C22.4792 26.263 22.4792 26.2681 22.4792 26.2681C22.4996 26.5387 22.5558 26.8068 22.6451 27.0647C22.6477 27.0698 22.6477 27.0749 22.6502 27.0774C22.6962 27.2051 22.7498 27.3328 22.8085 27.4528C22.8315 27.4987 22.8545 27.5421 22.8775 27.5855C22.9489 27.7157 23.0306 27.8409 23.12 27.9609C23.1532 28.0043 23.1838 28.0477 23.2196 28.0885C23.3192 28.2111 23.4289 28.326 23.5438 28.4357C23.6026 28.4894 23.6613 28.543 23.7251 28.594C23.8502 28.6962 23.983 28.7881 24.1209 28.8723C24.297 28.9796 24.4834 29.0715 24.6749 29.1481L24.966 29.263L24.9711 29.2655C24.9915 29.2732 25.0145 29.2809 25.0349 29.286L25.0553 29.2911C25.0706 29.2962 25.086 29.2987 25.1038 29.3013C25.1089 29.3013 25.1166 29.3038 25.1243 29.3064C25.1447 29.3089 25.1651 29.3115 25.1881 29.314H25.1957C25.2136 29.314 25.234 29.3166 25.2519 29.3166H25.2749C25.2902 29.3166 25.303 29.3166 25.3183 29.314L25.3413 29.3115C25.3617 29.3089 25.3796 29.3064 25.4 29.3038C22.1038 28.114 23.0179 24.0009 23.2043 23.2885C22.4715 24.8204 22.4613 25.8826 22.4766 26.1813Z" fill="#F1B100"/>
<path d="M22.8136 27.4528C22.8366 27.4987 22.8596 27.5421 22.8825 27.5855Z" fill="#F1B100"/>
<path d="M23.1277 27.9634C23.1608 28.0068 23.1915 28.0502 23.2272 28.0911Z" fill="#F1B100"/>
<path d="M23.2272 28.0911C23.3268 28.2136 23.4366 28.3285 23.5515 28.4383Z" fill="#F1B100"/>
<path d="M22.4791 26.2094C22.4791 26.2017 22.4791 26.194 22.4766 26.1838Z" fill="#F1B100"/>
<path d="M22.6502 27.0647C22.6528 27.0698 22.6528 27.0749 22.6553 27.0774Z" fill="#F1B100"/>
<path d="M23.5515 28.4383C23.6102 28.4919 23.6689 28.5455 23.7328 28.5966Z" fill="#F1B100"/>
<path d="M22.4766 26.1813C22.4613 25.8826 22.4715 24.8204 23.1966 23.286Z" fill="#F1B100"/>
<path d="M23.1277 27.9634C23.0383 27.8434 22.9591 27.7183 22.8851 27.5881Z" fill="#F1B100"/>
<path d="M22.8136 27.4528C22.7523 27.3302 22.6987 27.2051 22.6553 27.0774Z" fill="#F1B100"/>
<path d="M24.1285 28.8749C24.3047 28.9821 24.4911 29.074 24.6826 29.1506L24.9736 29.2655L24.9787 29.2681" fill="#F1B100"/>
<path d="M25.1983 29.314C25.2162 29.314 25.2366 29.3166 25.2545 29.3166Z" fill="#F1B100"/>
<path d="M25.3413 29.3115C25.3617 29.3089 25.3796 29.3064 25.4 29.3038Z" fill="#F1B100"/>
<path d="M25.2775 29.314C25.2928 29.314 25.3055 29.314 25.3209 29.3115Z" fill="#F1B100"/>
<path d="M22.4817 26.2579C22.4817 26.263 22.4817 26.2681 22.4817 26.2681C22.5021 26.5387 22.5583 26.8068 22.6477 27.0647" fill="#F1B100"/>
<path d="M25.1268 29.3064C25.1191 29.3064 25.114 29.3038 25.1064 29.3013Z" fill="#F1B100"/>
<path d="M25.3413 29.3115L25.3183 29.314Z" fill="#F1B100"/>
<path d="M25.1268 29.3064C25.1472 29.3089 25.1677 29.3115 25.1906 29.314Z" fill="#F1B100"/>
<path d="M25.0604 29.2911C25.0757 29.2962 25.0911 29.2987 25.1089 29.3013Z" fill="#F1B100"/>
<path d="M24.9787 29.2655C24.9992 29.2732 25.0221 29.2809 25.0426 29.286Z" fill="#F1B100"/>
<path d="M25.0604 29.2911L25.04 29.286Z" fill="#F1B100"/>
<path d="M23.7302 28.594C23.8553 28.6962 23.9881 28.7881 24.126 28.8723Z" fill="#F1B100"/>
<path d="M16.954 25.903C16.9668 25.9157 16.9796 25.9285 16.9949 25.9413C16.9821 25.9285 16.9668 25.9157 16.954 25.903Z" fill="#F1B100"/>
<path d="M17.0689 25.9974C17.0817 26.0077 17.097 26.0153 17.1098 26.023C17.097 26.0128 17.0817 26.0051 17.0689 25.9974Z" fill="#F1B100"/>
<path d="M17.1277 26.0306C17.1481 26.0409 17.1685 26.0511 17.1889 26.0613C17.166 26.0536 17.1455 26.0434 17.1277 26.0306Z" fill="#F1B100"/>
<path d="M18.5447 26.4621C18.6238 26.4698 18.7055 26.4749 18.7847 26.4774C18.703 26.4749 18.6238 26.4698 18.5447 26.4621Z" fill="#F1B100"/>
<path d="M16.8621 25.7906C16.8723 25.8085 16.8851 25.8238 16.8979 25.8392C16.8851 25.8238 16.8723 25.806 16.8621 25.7906Z" fill="#F1B100"/>
<path d="M19.8545 26.3421C19.903 26.3268 19.9515 26.314 19.9974 26.2962C19.9515 26.3115 19.903 26.3268 19.8545 26.3421Z" fill="#F1B100"/>
<path d="M19.257 26.4596C19.3106 26.4545 19.3643 26.4468 19.4179 26.4391C19.3668 26.4468 19.3132 26.4545 19.257 26.4596Z" fill="#F1B100"/>
<path d="M21.1336 25.6298L21.1132 25.6502L21.1081 25.6553L21.0953 25.6681L21.0902 25.6732L21.08 25.6809L21.0775 25.6834L21.0698 25.6885C20.863 25.8672 20.6357 26.0179 20.3906 26.1379L20.3779 26.143C20.2553 26.2017 20.1302 26.2553 20 26.2987C19.9515 26.3166 19.9055 26.3319 19.857 26.3447C19.714 26.3855 19.5685 26.4187 19.4204 26.4417C19.3668 26.4494 19.3132 26.457 19.2596 26.4621C19.1013 26.48 18.943 26.4851 18.7847 26.48C18.7055 26.4774 18.6264 26.4723 18.5447 26.4647C18.177 26.4289 17.8196 26.3345 17.48 26.1889L17.1915 26.0664L17.1864 26.0638C17.166 26.0536 17.1455 26.0434 17.1251 26.0332L17.1072 26.023C17.0919 26.0153 17.0792 26.0077 17.0664 25.9974L17.0485 25.9872C17.0306 25.9745 17.0128 25.9617 16.9975 25.9489L16.9923 25.9438C16.977 25.9311 16.9643 25.9183 16.9515 25.9055C16.9464 25.9004 16.9413 25.8953 16.9362 25.8902C16.926 25.88 16.9157 25.8698 16.9081 25.8596L16.8928 25.8417C16.88 25.8264 16.8698 25.8111 16.857 25.7932C20.046 27.2689 22.2902 23.7021 22.6579 23.0638C22.0962 24.6647 21.3532 25.4281 21.1336 25.6298Z" fill="#F1B100"/>
<path d="M20 26.2962C19.9515 26.314 19.9055 26.3294 19.857 26.3421Z" fill="#F1B100"/>
<path d="M19.4204 26.4391C19.3668 26.4468 19.3132 26.4545 19.2596 26.4596Z" fill="#F1B100"/>
<path d="M19.257 26.4596C19.0987 26.4774 18.9404 26.4826 18.7821 26.4774Z" fill="#F1B100"/>
<path d="M21.1132 25.6477L21.1311 25.6298Z" fill="#F1B100"/>
<path d="M21.0953 25.6655L21.1081 25.6528Z" fill="#F1B100"/>
<path d="M21.08 25.6757L21.0902 25.6681Z" fill="#F1B100"/>
<path d="M20.3881 26.1328L20.3753 26.1379Z" fill="#F1B100"/>
<path d="M18.7847 26.4774C18.7055 26.4749 18.6264 26.4698 18.5447 26.4621Z" fill="#F1B100"/>
<path d="M21.1336 25.6298C21.3532 25.4281 22.0962 24.6672 22.6579 23.0664Z" fill="#F1B100"/>
<path d="M19.4204 26.4391C19.5685 26.4162 19.714 26.383 19.857 26.3421Z" fill="#F1B100"/>
<path d="M20 26.2962C20.1302 26.2528 20.2553 26.1991 20.3779 26.1404Z" fill="#F1B100"/>
<path d="M18.0672 26.383C17.8655 26.3345 17.6689 26.2706 17.48 26.1889L17.1915 26.0638L17.1864 26.0613" fill="#F1B100"/>
<path d="M16.9949 25.9413C16.9796 25.9285 16.9668 25.9157 16.954 25.903Z" fill="#F1B100"/>
<path d="M16.8953 25.8392C16.8826 25.8238 16.8723 25.8085 16.8596 25.7906Z" fill="#F1B100"/>
<path d="M16.9387 25.8877C16.9285 25.8774 16.9209 25.8672 16.9106 25.857Z" fill="#F1B100"/>
<path d="M21.1132 25.6477L21.1081 25.6528Z" fill="#F1B100"/>
<path d="M21.0774 25.6783L21.0698 25.6834C20.863 25.8621 20.6357 26.0128 20.3906 26.1328" fill="#F1B100"/>
<path d="M21.08 25.6757L21.0775 25.6783Z" fill="#F1B100"/>
<path d="M21.0953 25.6655L21.0902 25.6706Z" fill="#F1B100"/>
<path d="M16.9949 25.9413L17 25.9464Z" fill="#F1B100"/>
<path d="M17.0536 25.9847L17.0715 25.9949Z" fill="#F1B100"/>
<path d="M16.9387 25.8877C16.9438 25.8928 16.9489 25.8979 16.954 25.903Z" fill="#F1B100"/>
<path d="M16.8953 25.8392L16.9106 25.857Z" fill="#F1B100"/>
<path d="M17.0536 25.9847C17.0357 25.9719 17.0179 25.9591 17.0025 25.9464Z" fill="#F1B100"/>
<path d="M17.1098 26.023C17.0945 26.0153 17.0817 26.0077 17.0689 25.9974Z" fill="#F1B100"/>
<path d="M17.1864 26.0613C17.166 26.0511 17.1455 26.0409 17.1251 26.0306Z" fill="#F1B100"/>
<path d="M17.1098 26.023L17.1277 26.0332Z" fill="#F1B100"/>
<path d="M18.5447 26.4621C18.3838 26.4468 18.223 26.4187 18.0672 26.383Z" fill="#F1B100"/>
</g>
</g>
<defs>
<clipPath id="clip0_9_2">
<rect width="32" height="32" fill="white"/>
</clipPath>
<clipPath id="clip1_9_2">
<rect width="18" height="18" fill="white" transform="translate(14 14)"/>
</clipPath>
</defs>
</svg>
